<svg xmlns="http://www.w3.org/2000/svg" width="1162.225" height="1702.838" viewBox="0 0 1162.225 1702.838">
  <g id="Gruppe_273" data-name="Gruppe 273" transform="translate(18368.838 4528)">
    <g id="Gruppe_204" data-name="Gruppe 204" transform="translate(-18368.838 -4351.986)">
      <rect id="Rechteck_66" data-name="Rechteck 66" width="69.906" height="343.554" transform="translate(567.993 1183.27)"/>
      <path id="Pfad_228" data-name="Pfad 228" d="M-3211.373,136.2l-570.309,863.921,1108.484,55.224Z" transform="translate(3835.422 319.178)" fill="#7e856e"/>
      <path id="Pfad_312" data-name="Pfad 312" d="M625.187,0,0,881.747,1060.507,661.131Z" transform="matrix(0.999, 0.035, -0.035, 0.999, 35.764, 198.018)" opacity="0.27"/>
      <path id="Pfad_229" data-name="Pfad 229" d="M-3282.972-193.4l-625.187,881.747,1060.507-220.616Z" transform="translate(3908.159 391.418)" fill="#7e856e"/>
      <path id="Pfad_230" data-name="Pfad 230" d="M337.935,0,0,543.384,830.953,746.109Z" transform="matrix(0.999, 0.035, -0.035, 0.999, 273.435, 4.951)" opacity="0.23"/>
      <path id="Pfad_313" data-name="Pfad 313" d="M-3105.616-562.054-3448.732-17.377l843.693,203.207Z" transform="translate(3708.922 562.054)" fill="#7e856e"/>
    </g>
    <path id="Pfad_231" data-name="Pfad 231" d="M-2996.5-1025.176l14.01,69.5,70.7-23.289-56.693,46.212,56.693,46.21-70.7-23.286-14.01,69.5-14.006-69.5-70.7,23.286,56.693-46.21-56.693-46.212,70.7,23.289Z" transform="translate(-14768.94 -3502.824)" fill="#7e856e"/>
  </g>
</svg>
