<svg id="logo_white" xmlns="http://www.w3.org/2000/svg" xmlns:xlink="http://www.w3.org/1999/xlink" width="174.676" height="116.449" viewBox="0 0 174.676 116.449">
  <defs>
    <clipPath id="clip-path">
      <rect id="Rechteck_121" data-name="Rechteck 121" width="174.676" height="116.449" fill="none"/>
    </clipPath>
  </defs>
  <g id="Gruppe_300" data-name="Gruppe 300" clip-path="url(#clip-path)">
    <path id="Pfad_828" data-name="Pfad 828" d="M41.977,146.926v1.135H34.1l5.8-10.286.39-.57H34.757V136.07H42.3L36.421,146.5l-.282.426Z" transform="translate(-16.589 -66.197)" fill="#fff"/>
    <path id="Pfad_829" data-name="Pfad 829" d="M54.841,145.411l-.868,2.645H52.52l4.113-12h1.438l4.118,12H60.716l-.868-2.645h-5Zm4.663-1.084-2.126-6.491-.036-.354-.051.354-2.111,6.491h4.329Z" transform="translate(-25.55 -66.192)" fill="#fff"/>
    <path id="Pfad_830" data-name="Pfad 830" d="M83.065,148.06v-5.233h-5.89v5.233H75.83V136.07h1.345v5.695h5.89V136.07h1.351v11.99Z" transform="translate(-36.89 -66.197)" fill="#fff"/>
    <path id="Pfad_831" data-name="Pfad 831" d="M107.6,148.06h-1.273l-6.409-9.808.087.76v9.048H98.66V136.07h1.279l6.4,9.808-.087-.76V136.07H107.6Z" transform="translate(-47.997 -66.197)" fill="#fff"/>
    <path id="Pfad_832" data-name="Pfad 832" d="M122.921,145.411l-.868,2.645H120.6l4.113-12h1.438l4.118,12H128.8l-.868-2.645h-5Zm4.663-1.084-2.126-6.491-.036-.354-.051.354-2.111,6.491h4.329Z" transform="translate(-58.671 -66.192)" fill="#fff"/>
    <g id="Gruppe_299" data-name="Gruppe 299" clip-path="url(#clip-path)">
      <path id="Pfad_833" data-name="Pfad 833" d="M147.854,143.408h-2.588v4.647H143.92v-12h3.461c2.645,0,4.206,1.366,4.206,3.672a3.293,3.293,0,0,1-2.609,3.512l.354.354,2.732,4.452h-1.6l-2.609-4.647Zm-.318-1.063a2.417,2.417,0,0,0,2.681-2.609,2.347,2.347,0,0,0-2.588-2.537H145.25v5.145h2.29Z" transform="translate(-70.016 -66.192)" fill="#fff"/>
      <path id="Pfad_834" data-name="Pfad 834" d="M170.647,146.926v1.135H162.77l5.8-10.286.39-.57h-5.536V136.07h7.538L165.1,146.5l-.288.426Z" transform="translate(-79.186 -66.197)" fill="#fff"/>
      <path id="Pfad_835" data-name="Pfad 835" d="M185.85,137.2V148.06H184.5V137.2H181.11V136.07H189.2V137.2Z" transform="translate(-88.108 -66.197)" fill="#fff"/>
      <path id="Pfad_836" data-name="Pfad 836" d="M204.529,136.065c3,0,4.791,1.546,4.791,4.134s-1.792,4.149-4.791,4.149h-1.864v3.708H201.32v-12h3.209Zm.123,7.2c2.075,0,3.281-1.135,3.281-3.071s-1.207-3-3.281-3h-1.987v6.07Z" transform="translate(-97.94 -66.192)" fill="#fff"/>
      <path id="Pfad_837" data-name="Pfad 837" d="M225.3,143.408h-2.588v4.647H221.37v-12h3.461c2.645,0,4.206,1.366,4.206,3.672a3.293,3.293,0,0,1-2.609,3.512l.354.354,2.732,4.452h-1.6l-2.609-4.647Zm-.318-1.063a2.417,2.417,0,0,0,2.681-2.609,2.345,2.345,0,0,0-2.588-2.537H222.7v5.145h2.29Z" transform="translate(-107.694 -66.192)" fill="#fff"/>
      <path id="Pfad_838" data-name="Pfad 838" d="M242.581,145.411l-.868,2.645H240.26l4.113-12h1.438l4.118,12h-1.474l-.868-2.645h-5Zm4.663-1.084-2.126-6.491-.036-.354-.051.354-2.111,6.491h4.329Z" transform="translate(-116.884 -66.192)" fill="#fff"/>
      <path id="Pfad_839" data-name="Pfad 839" d="M269.324,148.075l-2.768-4.93-.108-.462-.108.462-2.747,4.93H261.94l3.677-6.121-3.569-5.854h1.618l2.675,4.755.108.462.108-.462,2.675-4.755h1.633l-3.564,5.854,3.672,6.121Z" transform="translate(-127.431 -66.211)" fill="#fff"/>
      <rect id="Rechteck_118" data-name="Rechteck 118" width="1.345" height="11.99" transform="translate(146.202 69.873)" fill="#fff"/>
      <path id="Pfad_840" data-name="Pfad 840" d="M299.166,136.411v1.294a5.669,5.669,0,0,0-2.978-.94c-1.6,0-2.342.621-2.342,1.792,0,2.413,5.608,2.942,5.608,6.547,0,1.828-1.386,2.963-3.708,2.963a5.4,5.4,0,0,1-2.963-.8v-1.315a4.712,4.712,0,0,0,2.819.955c1.669,0,2.465-.673,2.465-1.879,0-2.768-5.587-3.209-5.587-6.547,0-1.792,1.386-2.876,3.708-2.876a6.009,6.009,0,0,1,2.978.8" transform="translate(-142.288 -65.973)" fill="#fff"/>
      <path id="Pfad_841" data-name="Pfad 841" d="M78.23,172.59c2.593,0,4.123,1.628,4.123,4.36s-1.535,4.36-4.123,4.36H75.95V172.59Zm0,8.1c2.141,0,3.4-1.392,3.4-3.738s-1.263-3.738-3.4-3.738H76.659v7.477Z" transform="translate(-36.949 -83.963)" fill="#fff"/>
      <path id="Pfad_842" data-name="Pfad 842" d="M94.933,177.931H92.689v3.379H91.98V172.59h2.465c1.91,0,3.03,1,3.03,2.67a2.437,2.437,0,0,1-1.987,2.6l.257.231,2.049,3.209h-.878l-1.987-3.379Zm-.246-.565a2.075,2.075,0,1,0-.026-4.149H92.689v4.154h2Z" transform="translate(-44.747 -83.963)" fill="#fff"/>
      <path id="Pfad_843" data-name="Pfad 843" d="M107.8,188.626a.432.432,0,0,1-.467.436.41.41,0,0,1-.436-.436.418.418,0,0,1,.436-.436.444.444,0,0,1,.467.436" transform="translate(-52.006 -91.552)" fill="#fff"/>
      <path id="Pfad_844" data-name="Pfad 844" d="M120.322,177.222l.077.565v3.523h-.709V172.59h.709v3.328l-.077.519,4.267-3.846H125.6l-4.9,4.257,5.248,4.462h-1.022Z" transform="translate(-58.228 -83.963)" fill="#fff"/>
      <path id="Pfad_845" data-name="Pfad 845" d="M134.874,179.24l-.709,2.075h-.786l3.1-8.714h.668l3.1,8.714h-.786l-.709-2.075Zm3.661-.58-1.7-4.95-.041-.282-.036.282-1.689,4.95Z" transform="translate(-64.888 -83.968)" fill="#fff"/>
      <path id="Pfad_846" data-name="Pfad 846" d="M150.8,173.211v8.1h-.709v-8.1H147.5v-.621h5.88v.621Z" transform="translate(-71.757 -83.963)" fill="#fff"/>
      <path id="Pfad_847" data-name="Pfad 847" d="M165.2,177.931h-2.244v3.379h-.709V172.59h2.465c1.905,0,3.03,1,3.03,2.67a2.437,2.437,0,0,1-1.987,2.6l.257.231,2.049,3.209h-.878l-1.987-3.379Zm-.246-.565a2.075,2.075,0,1,0-.026-4.149h-1.972v4.154h2Z" transform="translate(-78.933 -83.963)" fill="#fff"/>
      <rect id="Rechteck_119" data-name="Rechteck 119" width="0.709" height="8.714" transform="translate(91.004 88.627)" fill="#fff"/>
      <path id="Pfad_848" data-name="Pfad 848" d="M189.568,181.309h-.657l-5.109-7.585.077.637v6.948h-.709V172.59h.657l5.109,7.585-.077-.632V172.59h.709Z" transform="translate(-89.11 -83.963)" fill="#fff"/>
      <path id="Pfad_849" data-name="Pfad 849" d="M208.509,178.768V172.59h.709v6.034c0,1.962-.673,2.85-2.126,2.85a2.741,2.741,0,0,1-1.381-.359v-.75a2.218,2.218,0,0,0,1.381.5c.965,0,1.417-.657,1.417-2.1" transform="translate(-100.076 -83.963)" fill="#fff"/>
      <path id="Pfad_850" data-name="Pfad 850" d="M216.18,176.794c0-2.994,1.833-4.524,3.959-4.524s3.959,1.535,3.959,4.524-1.828,4.524-3.959,4.524-3.959-1.535-3.959-4.524m.724,0c0,2.645,1.494,3.918,3.235,3.918s3.235-1.279,3.235-3.918-1.494-3.918-3.235-3.918-3.235,1.279-3.235,3.918" transform="translate(-105.169 -83.808)" fill="#fff"/>
      <path id="Pfad_851" data-name="Pfad 851" d="M240.92,181.309v-3.9h-4.812v3.9H235.4V172.59h.709v4.247h4.812V172.59h.709v8.719Z" transform="translate(-114.52 -83.963)" fill="#fff"/>
      <path id="Pfad_852" data-name="Pfad 852" d="M258.5,181.309h-.657l-5.1-7.585.077.637v6.948h-.709V172.59h.657l5.1,7.585-.077-.632V172.59h.709Z" transform="translate(-122.649 -83.963)" fill="#fff"/>
      <path id="Pfad_853" data-name="Pfad 853" d="M163.786,45.024c-.031.123-.062.221-.087.3-.169.539-.211.139-.257.529-.026.082.021.062-.005.149-.031.108-.051.221-.072.329.015.144.026.046-.092.308-.1.221-.169.806-.272,1.017a2.307,2.307,0,0,1-.257.375.319.319,0,0,1-.262.128.205.205,0,0,1-.2-.128.988.988,0,0,1-.041-.457c0-.113.036-.406.051-.555s.031-.19-.036-.164a.619.619,0,0,0-.041-.236.486.486,0,0,0-.108-.185.542.542,0,0,0-.822.021c-.015.015-.031.046-.051.046-.051,0-.056.144-.1.262-.072.2-.026.252-.067.293-.031.026-.077-.067-.082.164a2.89,2.89,0,0,1-.041.452.538.538,0,0,1-.062.149.225.225,0,0,1-.359.067.558.558,0,0,1-.139-.169,1.613,1.613,0,0,1-.19-.626c-.01-.087-.01-.18-.021-.267-.046-.359.015-.216.036-.329.026-.18.051-.344-.015-.38-.026-.01-.036-.1-.031-.226v-.668c0-.149.108-.241-.021-.252a1.372,1.372,0,0,1-.036-.241v-.318a.918.918,0,0,1,1.232-.734c.349.082.724.128.57.2-.092.041-.051.139.375.067.185-.031.37-.072.56-.092a.917.917,0,0,1,.965.755.941.941,0,0,1-.031.426M153.413,36.89a17.722,17.722,0,0,0-6.224,1.119c.01.1.036.2.046.293.005.067.031.154,0,.2-.416.549-.277,1.2-.349,1.813-.051.436-.134.863-.185,1.3-.036.334-.021.678-.067,1.012-.046.313.087.647-.1.955-.051.082,0,.226.01.339a1.924,1.924,0,0,1,.005.344c-.082.519-.2,1.032-.257,1.556-.082.7-.113,1.407-.185,2.111-.051.524-.134,1.042-.2,1.566-.015.154.01.313.005.467a11.007,11.007,0,0,0-.211,2.172,1.047,1.047,0,0,1-.056.411,2.29,2.29,0,0,0-.1.991,8.253,8.253,0,0,1-.051,1.417c-.015.549-.015,1.1-.015,1.659,0,.781-.01,1.561.021,2.342.031.894.092,1.787.159,2.681.036.493.144.981.169,1.469a6.908,6.908,0,0,0,.478,1.956,2.973,2.973,0,0,0,.092.4c.056.1.185.169.282.252.041-.092.082-.19.113-.282a4.363,4.363,0,0,1,.241-.7c.344-.606.436-1.309.837-1.895a4.065,4.065,0,0,0,.3-1.037c.1-.3.236-.6.359-.9a2.063,2.063,0,0,1,.149-.739,9.544,9.544,0,0,0,.781-2.085c.241-.7.457-1.417.688-2.121.139-.416.288-.832.442-1.243a1.928,1.928,0,0,1,.159-.257,2.148,2.148,0,0,0,.159-.329c.1-.262.18-.529.277-.786.185-.493.38-.981.57-1.469.031-.087.1-.175.092-.257-.036-.832.524-1.417.847-2.1a2.188,2.188,0,0,1,.488-.734.883.883,0,0,1,.626-.123,2.556,2.556,0,0,1,.632.282.743.743,0,0,0-.092.031c0,.611.01,1.186,0,1.761-.01.452-.046.9-.072,1.361a.488.488,0,0,1-.036.262c-.241.349-.134.734-.149,1.109a1.934,1.934,0,0,1-.1.6.9.9,0,0,0-.108.647c.051.164-.051.37-.072.555-.067.575-.154,1.155-.185,1.731a16.24,16.24,0,0,0,0,1.659,4.669,4.669,0,0,0,.149,1,6.73,6.73,0,0,0,.38.914c.1.216.185.431.3.637a.735.735,0,0,0,.293.267c.411.2.549.77,1.068.8a3.267,3.267,0,0,0,.806-.062c.205-.036.4-.164.6-.205a.444.444,0,0,1,.37.092c.062.062.046.246.005.349a2.87,2.87,0,0,1-.827,1.114,2.292,2.292,0,0,1-1.72.77,3.854,3.854,0,0,1-1.032-.282,2.666,2.666,0,0,1-.755-.447,5.947,5.947,0,0,1-.632-.75c-.046-.062-.051-.175-.113-.211-.524-.339-.544-.919-.693-1.433a5.115,5.115,0,0,1-.308-1.438,3.163,3.163,0,0,1,.236-1.736,1.929,1.929,0,0,0,.139-.421.482.482,0,0,1-.169-.611V55.957l-.056-.026c-.041.092-.092.18-.128.277-.164.406-.329.816-.478,1.227-.123.344-.216.7-.334,1.042-.169.493-.365.981-.529,1.479-.185.555-.344,1.119-.529,1.674-.144.431-.313.852-.467,1.279-.134.359-.246.724-.4,1.073-.334.745-.7,1.474-1.032,2.218a7.188,7.188,0,0,1-1.335,1.823,1.654,1.654,0,0,1-.878.4c-.139.026-.339-.19-.483-.324a2.743,2.743,0,0,1-.339-.462c-.056-.082-.144-.18-.134-.272a3.335,3.335,0,0,0-.339-1.176,16.608,16.608,0,0,1-.324-1.674c-.036-.19-.082-.375-.108-.565-.056-.406-.087-.811-.159-1.212a8.758,8.758,0,0,1-.072-2.075,8.425,8.425,0,0,0-.1-1.068,3.781,3.781,0,0,1,.031-.724,1.061,1.061,0,0,1-.087-.344c.031-.406.1-.816.123-1.222s.021-.832.041-1.248c.026-.436.082-.873.092-1.309,0-.293-.067-.591-.072-.888,0-.19.067-.38.082-.575.046-.555.077-1.109.128-1.664a8.826,8.826,0,0,1,.205-1.654,5.893,5.893,0,0,0,.139-1.607c0-.072.067-.139.087-.211.041-.154.139-.324.1-.457a1.56,1.56,0,0,1,.056-.991c.051-.139-.026-.318-.021-.483.031-.585.062-1.166.113-1.751.026-.272.1-.539.175-.929,0-.246.015-.626,0-1.006-.01-.231-.082-.462-.108-.693a2.314,2.314,0,0,1,.021-.5c.062-.5.154-1,.19-1.5.015-.246.026-.493.036-.739a17.831,17.831,0,0,0,8.591,33.455q.832,0,1.648-.077c-.051-.241-.1-.488-.149-.729a5.25,5.25,0,0,1-.262-1.484,9.382,9.382,0,0,0-.241-1.535c-.026-.431-.262-.873.257-1.268-.39.01-.514-.123-.411-.354.128-.293.293-.575.493-.945.575,2.09,1.135,4.118,1.695,6.142.252-.041.5-.092.755-.144a10.63,10.63,0,0,0,.236-1.048c.082-.5.087-1.012.139-1.515.092-.981.159-1.967.308-2.942.169-1.13.421-2.244.616-3.369.1-.585.164-1.176.241-1.761.062-.457.108-.919.2-1.376.087-.472.211-.94.334-1.407a1.791,1.791,0,0,1,.175-.318,2.269,2.269,0,0,1-.087-1.217c.021-.436.056-.868.1-1.3.041-.38.118-.76.154-1.145.051-.529.072-1.063.134-1.592a1.65,1.65,0,0,1,.2-.673,5.633,5.633,0,0,1,.693-.827.48.48,0,0,1,.349-.123c.4.056.647.4.637.919-.01.539-.1,1.084-.082,1.623a3.5,3.5,0,0,1-.036.7,10.134,10.134,0,0,1-.252,1.751,5.261,5.261,0,0,0-.149,1.037c-.082.688-.154,1.376-.236,2.069-.077.626-.133,1.258-.262,1.874-.205,1.006-.344,2.028-.5,3.045-.123.816-.3,1.628-.339,2.449-.041.847-.3,1.654-.349,2.5a7.373,7.373,0,0,1-.021.755,5.442,5.442,0,0,1-.221.611c-.082.272-.164.539-.241.811A17.832,17.832,0,0,0,153.434,36.9" transform="translate(-65.973 -17.947)" fill="#fff"/>
    </g>
  </g>
</svg>
