<svg xmlns="http://www.w3.org/2000/svg" xmlns:xlink="http://www.w3.org/1999/xlink" width="533.367" height="936.811" viewBox="0 0 533.367 936.811">
  <defs>
    <clipPath id="clip-path">
      <path id="Pfad_257" data-name="Pfad 257" d="M479.975,1088.747l-4.524-8.452,2.117-.319-4.234-7.911,2.323-.44-7.367-13.764-7.367,16.555,2.124-.4-4.035,8.754,1.89-.284-4.3,9.055Z" transform="translate(-456.605 -1057.86)" fill="none"/>
    </clipPath>
  </defs>
  <g id="onBoardTree" transform="translate(11435.367 4684.811)">
    <g id="Gruppe_290" data-name="Gruppe 290" transform="translate(-7527.208 -3659.635)">
      <g id="Gruppe_204" data-name="Gruppe 204" transform="translate(-3908.159 -917.583)">
        <rect id="Rechteck_66" data-name="Rechteck 66" width="31.648" height="155.533" transform="translate(257.14 531.685)"/>
        <path id="Pfad_228" data-name="Pfad 228" d="M-3523.493,136.2l-258.188,391.111,501.828,25Z" transform="translate(3806.01 65.955)" fill="#7e856e"/>
        <path id="Pfad_312" data-name="Pfad 312" d="M-3625.126-193.4l-283.032,399.181,480.109-99.876Z" transform="matrix(0.999, 0.035, -0.035, 0.999, 3915.219, 415.32)" opacity="0.27"/>
        <path id="Pfad_229" data-name="Pfad 229" d="M-3625.126-193.4l-283.032,399.181,480.109-99.876Z" transform="translate(3908.159 279.045)" fill="#7e856e"/>
        <path id="Pfad_230" data-name="Pfad 230" d="M-3295.743-562.054l-152.989,246,376.186,91.777Z" transform="matrix(0.999, 0.035, -0.035, 0.999, 3550.804, 680.312)" opacity="0.23"/>
        <path id="Pfad_313" data-name="Pfad 313" d="M-3293.4-562.054-3448.732-315.47l381.953,92Z" transform="translate(3566.524 558.054)" fill="#7e856e"/>
      </g>
      <path id="Pfad_231" data-name="Pfad 231" d="M-3042.63-1025.176l6.38,40.454,32.2-13.555-25.818,26.9,25.818,26.9-32.2-13.554-6.38,40.453-6.378-40.453-32.2,13.554,25.818-26.9-25.818-26.9,32.2,13.555Z" transform="translate(-592.133)" fill="#dcdfdc"/>
    </g>
    <circle id="Ellipse_181" data-name="Ellipse 181" cx="37" cy="37" r="37" transform="translate(-11260 -4324)" fill="#dcdfdc"/>
    <circle id="Ellipse_180" data-name="Ellipse 180" cx="37" cy="37" r="37" transform="translate(-11163 -4477)"/>
    <circle id="Ellipse_182" data-name="Ellipse 182" cx="37" cy="37" r="37" transform="translate(-11200 -4598)" fill="#eb4511"/>
    <circle id="Ellipse_183" data-name="Ellipse 183" cx="37" cy="37" r="37" transform="translate(-11096 -4089)" fill="#fff"/>
    <rect id="Rechteck_116" data-name="Rechteck 116" width="170" height="92" rx="6" transform="translate(-11072 -4488)"/>
    <text id="Dr._Katrin_John" data-name="Dr. Katrin John" transform="translate(-11055 -4463)" fill="#fff" font-size="14" font-family="RuckSack-Bold, RuckSack" font-weight="700"><tspan x="0" y="14">Dr. Katrin John</tspan></text>
    <text id="EUR_35_-" data-name="EUR 35,-" transform="translate(-11055 -4440)" fill="#f5f5f5" font-size="14" font-family="RuckSack-Bold, RuckSack" font-weight="700"><tspan x="0" y="14">EUR 35,-</tspan></text>
    <rect id="Rechteck_117" data-name="Rechteck 117" width="9" height="9" transform="translate(-11071.636 -4448.364) rotate(45)"/>
    <path id="Pfad_799" data-name="Pfad 799" d="M241.431,0C374.769,0,482.862,38.951,482.862,87s-108.092,87-241.431,87S0,135.049,0,87,108.092,0,241.431,0Z" transform="translate(-11404.431 -3922)" fill="#f5f5f5"/>
    <g id="Gruppe_291" data-name="Gruppe 291" transform="matrix(0.961, -0.276, 0.276, 0.961, -12001.473, -4339.882)">
      <path id="Pfad_112" data-name="Pfad 112" d="M0,0H60.1V49.358H0Z" transform="translate(539.887 565.454)" fill="#dcdfdc"/>
      <path id="Pfad_63" data-name="Pfad 63" d="M76.5,26.956V29.3h-.018a2.9,2.9,0,0,1-2.841-2.342Z" transform="translate(523.49 538.498)" fill="#fff"/>
      <path id="Pfad_64" data-name="Pfad 64" d="M76.488,34.929v5.765h-.018a2.882,2.882,0,1,1,0-5.765Z" transform="translate(523.503 536.723)" fill="#fff"/>
      <path id="Pfad_65" data-name="Pfad 65" d="M76.488,47.306V53.08h-.018a2.887,2.887,0,0,1,0-5.774Z" transform="translate(523.503 533.967)" fill="#fff"/>
      <path id="Pfad_66" data-name="Pfad 66" d="M76.488,59.695v5.763h-.018a2.882,2.882,0,1,1,0-5.763Z" transform="translate(523.503 531.208)" fill="#fff"/>
      <path id="Pfad_67" data-name="Pfad 67" d="M76.488,72.072v5.765h-.018a2.882,2.882,0,1,1,0-5.765Z" transform="translate(523.503 528.453)" fill="#fff"/>
      <path id="Pfad_68" data-name="Pfad 68" d="M76.488,84.45v4.665H74.2a2.837,2.837,0,0,1-.617-1.779,2.881,2.881,0,0,1,2.886-2.886Z" transform="translate(523.503 525.697)" fill="#fff"/>
      <path id="Pfad_69" data-name="Pfad 69" d="M68.049,31.623a2.884,2.884,0,1,1-2.883-2.884,2.882,2.882,0,0,1,2.883,2.884" transform="translate(526.02 538.101)" fill="#fff"/>
      <path id="Pfad_70" data-name="Pfad 70" d="M68.049,44a2.884,2.884,0,1,1-2.883-2.883A2.883,2.883,0,0,1,68.049,44" transform="translate(526.02 535.344)" fill="#fff"/>
      <path id="Pfad_71" data-name="Pfad 71" d="M68.049,56.384A2.884,2.884,0,1,1,65.166,53.5a2.882,2.882,0,0,1,2.883,2.883" transform="translate(526.02 532.587)" fill="#fff"/>
      <path id="Pfad_72" data-name="Pfad 72" d="M68.049,68.765a2.884,2.884,0,1,1-2.883-2.883,2.882,2.882,0,0,1,2.883,2.883" transform="translate(526.02 529.831)" fill="#fff"/>
      <path id="Pfad_73" data-name="Pfad 73" d="M68.049,81.145a2.884,2.884,0,1,1-2.883-2.883,2.883,2.883,0,0,1,2.883,2.883" transform="translate(526.02 527.074)" fill="#fff"/>
      <path id="Pfad_74" data-name="Pfad 74" d="M57.379,26.956a2.883,2.883,0,0,1-5.663,0Z" transform="translate(528.372 538.498)" fill="#fff"/>
      <path id="Pfad_75" data-name="Pfad 75" d="M57.418,37.813a2.884,2.884,0,1,1-2.884-2.884,2.884,2.884,0,0,1,2.884,2.884" transform="translate(528.387 536.723)" fill="#fff"/>
      <path id="Pfad_76" data-name="Pfad 76" d="M57.418,50.194a2.884,2.884,0,1,1-2.884-2.884,2.883,2.883,0,0,1,2.884,2.884" transform="translate(528.387 533.966)" fill="#fff"/>
      <path id="Pfad_77" data-name="Pfad 77" d="M57.418,62.575a2.884,2.884,0,1,1-2.884-2.882,2.883,2.883,0,0,1,2.884,2.882" transform="translate(528.387 531.209)" fill="#fff"/>
      <path id="Pfad_78" data-name="Pfad 78" d="M57.418,74.956a2.884,2.884,0,1,1-2.884-2.884,2.883,2.883,0,0,1,2.884,2.884" transform="translate(528.387 528.453)" fill="#fff"/>
      <path id="Pfad_79" data-name="Pfad 79" d="M57.416,87.336a2.9,2.9,0,0,1-.617,1.78H52.261a2.885,2.885,0,1,1,5.155-1.78" transform="translate(528.388 525.697)" fill="#fff"/>
      <path id="Pfad_80" data-name="Pfad 80" d="M46.116,31.623a2.884,2.884,0,1,1-2.886-2.884,2.884,2.884,0,0,1,2.886,2.884" transform="translate(530.903 538.101)" fill="#fff"/>
      <path id="Pfad_81" data-name="Pfad 81" d="M46.116,44A2.884,2.884,0,1,1,43.23,41.12,2.885,2.885,0,0,1,46.116,44" transform="translate(530.903 535.344)" fill="#fff"/>
      <path id="Pfad_82" data-name="Pfad 82" d="M46.116,56.384A2.884,2.884,0,1,1,43.23,53.5a2.884,2.884,0,0,1,2.886,2.883" transform="translate(530.903 532.587)" fill="#fff"/>
      <path id="Pfad_83" data-name="Pfad 83" d="M46.116,68.765a2.884,2.884,0,1,1-2.886-2.883,2.884,2.884,0,0,1,2.886,2.883" transform="translate(530.903 529.831)" fill="#fff"/>
      <path id="Pfad_84" data-name="Pfad 84" d="M46.116,81.145a2.884,2.884,0,1,1-2.886-2.883,2.885,2.885,0,0,1,2.886,2.883" transform="translate(530.903 527.074)" fill="#fff"/>
      <path id="Pfad_85" data-name="Pfad 85" d="M35.45,26.956a2.883,2.883,0,0,1-5.663,0Z" transform="translate(533.254 538.498)" fill="#fff"/>
      <path id="Pfad_86" data-name="Pfad 86" d="M35.484,37.813A2.884,2.884,0,1,1,32.6,34.929a2.883,2.883,0,0,1,2.883,2.884" transform="translate(533.27 536.723)" fill="#fff"/>
      <path id="Pfad_87" data-name="Pfad 87" d="M35.484,50.194A2.884,2.884,0,1,1,32.6,47.31a2.883,2.883,0,0,1,2.883,2.884" transform="translate(533.27 533.966)" fill="#fff"/>
      <path id="Pfad_88" data-name="Pfad 88" d="M35.484,62.575A2.884,2.884,0,1,1,32.6,59.693a2.883,2.883,0,0,1,2.883,2.882" transform="translate(533.27 531.209)" fill="#fff"/>
      <path id="Pfad_89" data-name="Pfad 89" d="M35.484,74.956A2.884,2.884,0,1,1,32.6,72.072a2.883,2.883,0,0,1,2.883,2.884" transform="translate(533.27 528.453)" fill="#fff"/>
      <path id="Pfad_90" data-name="Pfad 90" d="M35.481,87.336a2.889,2.889,0,0,1-.608,1.78h-4.54a2.976,2.976,0,0,1-.616-1.78,2.882,2.882,0,1,1,5.764,0" transform="translate(533.27 525.697)" fill="#fff"/>
      <path id="Pfad_91" data-name="Pfad 91" d="M24.182,31.623A2.884,2.884,0,1,1,21.3,28.739a2.882,2.882,0,0,1,2.884,2.884" transform="translate(535.787 538.101)" fill="#fff"/>
      <path id="Pfad_92" data-name="Pfad 92" d="M24.182,44A2.884,2.884,0,1,1,21.3,41.12,2.883,2.883,0,0,1,24.182,44" transform="translate(535.787 535.344)" fill="#fff"/>
      <path id="Pfad_93" data-name="Pfad 93" d="M24.182,56.384A2.884,2.884,0,1,1,21.3,53.5a2.882,2.882,0,0,1,2.884,2.883" transform="translate(535.787 532.587)" fill="#fff"/>
      <path id="Pfad_94" data-name="Pfad 94" d="M24.182,68.765A2.884,2.884,0,1,1,21.3,65.882a2.882,2.882,0,0,1,2.884,2.883" transform="translate(535.787 529.831)" fill="#fff"/>
      <path id="Pfad_95" data-name="Pfad 95" d="M24.182,81.145A2.884,2.884,0,1,1,21.3,78.262a2.883,2.883,0,0,1,2.884,2.883" transform="translate(535.787 527.074)" fill="#fff"/>
      <path id="Pfad_96" data-name="Pfad 96" d="M13.522,26.956a2.883,2.883,0,0,1-5.664,0Z" transform="translate(538.137 538.498)" fill="#fff"/>
      <path id="Pfad_97" data-name="Pfad 97" d="M13.55,37.813a2.884,2.884,0,1,1-2.884-2.884,2.884,2.884,0,0,1,2.884,2.884" transform="translate(538.154 536.723)" fill="#fff"/>
      <path id="Pfad_98" data-name="Pfad 98" d="M13.55,50.194a2.884,2.884,0,1,1-2.884-2.884,2.883,2.883,0,0,1,2.884,2.884" transform="translate(538.154 533.966)" fill="#fff"/>
      <path id="Pfad_99" data-name="Pfad 99" d="M13.55,62.575a2.884,2.884,0,1,1-2.884-2.882,2.883,2.883,0,0,1,2.884,2.882" transform="translate(538.154 531.209)" fill="#fff"/>
      <path id="Pfad_100" data-name="Pfad 100" d="M13.55,74.956a2.884,2.884,0,1,1-2.884-2.884,2.883,2.883,0,0,1,2.884,2.884" transform="translate(538.154 528.453)" fill="#fff"/>
      <path id="Pfad_101" data-name="Pfad 101" d="M13.551,87.336a2.889,2.889,0,0,1-.608,1.78H8.405a2.882,2.882,0,1,1,5.146-1.78" transform="translate(538.153 525.697)" fill="#fff"/>
      <path id="Pfad_102" data-name="Pfad 102" d="M3.031,31.628A2.879,2.879,0,0,1,.146,34.506L0,34.5V28.751l.146-.009a2.881,2.881,0,0,1,2.885,2.886" transform="translate(539.887 538.1)" fill="#fff"/>
      <path id="Pfad_103" data-name="Pfad 103" d="M3.031,44A2.887,2.887,0,0,1,.146,46.892L0,46.882V41.128l.146-.009A2.881,2.881,0,0,1,3.031,44" transform="translate(539.887 535.344)" fill="#fff"/>
      <path id="Pfad_104" data-name="Pfad 104" d="M3.031,56.383a2.769,2.769,0,0,1-.217,1.1A2.871,2.871,0,0,1,.146,59.269L0,59.26V53.505L.146,53.5a2.888,2.888,0,0,1,2.885,2.887" transform="translate(539.887 532.589)" fill="#fff"/>
      <path id="Pfad_105" data-name="Pfad 105" d="M3.031,68.761A2.881,2.881,0,0,1,.146,71.647L0,71.639V65.893l.146-.009a2.879,2.879,0,0,1,2.885,2.877" transform="translate(539.887 529.831)" fill="#fff"/>
      <path id="Pfad_106" data-name="Pfad 106" d="M3.031,81.148A2.885,2.885,0,0,1,.146,84.033L0,84.026V78.271l.146-.01a2.881,2.881,0,0,1,2.885,2.887" transform="translate(539.887 527.075)" fill="#fff"/>
      <rect id="Rechteck_22" data-name="Rechteck 22" width="10.239" height="49.358" transform="translate(564.819 565.453)"/>
      <path id="Pfad_107" data-name="Pfad 107" d="M40.814,23.218l20.523-3.177L54.452,10.17,40.814,21.353Z" transform="translate(530.799 542.235)" opacity="0.49"/>
      <path id="Pfad_108" data-name="Pfad 108" d="M38.66,20.954h1.677L47.321,4.518,38.66,0Z" transform="translate(531.279 544.5)" opacity="0.49"/>
      <path id="Pfad_109" data-name="Pfad 109" d="M30.628,23.218,10.1,20.041l6.884-9.872L30.628,21.353Z" transform="translate(537.637 542.235)"/>
      <path id="Pfad_110" data-name="Pfad 110" d="M36.179,20.954H34.5L27.516,4.518,36.179,0Z" transform="translate(533.76 544.5)"/>
    </g>
    <g id="Gruppe_292" data-name="Gruppe 292" transform="matrix(0.891, 0.454, -0.454, 0.891, -10818.104, -4646.56)">
      <path id="Pfad_112-2" data-name="Pfad 112" d="M0,0H75.078V61.655H0Z" transform="translate(128.922 692.222) rotate(-8)" fill="#7e856e"/>
      <g id="Gruppe_254" data-name="Gruppe 254" transform="translate(129.164 681.773)">
        <path id="Pfad_63-2" data-name="Pfad 63" d="M3.571,0V2.926H3.549A3.626,3.626,0,0,1,0,0Z" transform="translate(70.57 0.497) rotate(-8)" fill="#dcdfdc"/>
        <path id="Pfad_64-2" data-name="Pfad 64" d="M3.627,0V7.2H3.6A3.6,3.6,0,1,1,3.6,0Z" transform="translate(71.592 8.171) rotate(-8)" fill="#dcdfdc"/>
        <path id="Pfad_65-2" data-name="Pfad 65" d="M3.627,0V7.213H3.6A3.606,3.606,0,0,1,3.6,0Z" transform="translate(73.265 20.072) rotate(-8)" fill="#dcdfdc"/>
        <path id="Pfad_66-2" data-name="Pfad 66" d="M3.627,0V7.2H3.6A3.6,3.6,0,1,1,3.6,0Z" transform="translate(74.939 31.985) rotate(-8)" fill="#dcdfdc"/>
        <path id="Pfad_67-2" data-name="Pfad 67" d="M3.627,0V7.2H3.6A3.6,3.6,0,1,1,3.6,0Z" transform="translate(76.611 43.886) rotate(-8)" fill="#dcdfdc"/>
        <path id="Pfad_68-2" data-name="Pfad 68" d="M3.627,0V5.827H.771A3.544,3.544,0,0,1,0,3.6,3.6,3.6,0,0,1,3.6,0Z" transform="translate(78.284 55.788) rotate(-8)" fill="#dcdfdc"/>
        <path id="Pfad_69-2" data-name="Pfad 69" d="M7.2,3.6A3.6,3.6,0,1,1,3.6,0,3.6,3.6,0,0,1,7.2,3.6" transform="translate(59.886 3.747) rotate(-8)" fill="#dcdfdc"/>
        <path id="Pfad_70-2" data-name="Pfad 70" d="M7.2,3.6A3.6,3.6,0,1,1,3.6,0,3.6,3.6,0,0,1,7.2,3.6" transform="translate(61.559 15.652) rotate(-8)" fill="#dcdfdc"/>
        <path id="Pfad_71-2" data-name="Pfad 71" d="M7.2,3.6A3.6,3.6,0,1,1,3.6,0,3.6,3.6,0,0,1,7.2,3.6" transform="translate(63.233 27.557) rotate(-8)" fill="#dcdfdc"/>
        <path id="Pfad_72-2" data-name="Pfad 72" d="M7.2,3.6A3.6,3.6,0,1,1,3.6,0,3.6,3.6,0,0,1,7.2,3.6" transform="translate(64.905 39.462) rotate(-8)" fill="#dcdfdc"/>
        <path id="Pfad_73-2" data-name="Pfad 73" d="M7.2,3.6A3.6,3.6,0,1,1,3.6,0,3.6,3.6,0,0,1,7.2,3.6" transform="translate(66.579 51.366) rotate(-8)" fill="#dcdfdc"/>
        <path id="Pfad_74-2" data-name="Pfad 74" d="M7.074,0A3.606,3.606,0,0,1,3.535,2.926,3.6,3.6,0,0,1,0,0Z" transform="translate(49.487 3.46) rotate(-8)" fill="#dcdfdc"/>
        <path id="Pfad_75-2" data-name="Pfad 75" d="M7.2,3.6A3.6,3.6,0,1,1,3.6,0,3.6,3.6,0,0,1,7.2,3.6" transform="translate(50.501 11.135) rotate(-8)" fill="#dcdfdc"/>
        <path id="Pfad_76-2" data-name="Pfad 76" d="M7.2,3.6A3.6,3.6,0,1,1,3.6,0,3.6,3.6,0,0,1,7.2,3.6" transform="translate(52.173 23.041) rotate(-8)" fill="#dcdfdc"/>
        <path id="Pfad_77-2" data-name="Pfad 77" d="M7.2,3.6A3.6,3.6,0,1,1,3.6,0,3.6,3.6,0,0,1,7.2,3.6" transform="translate(53.847 34.948) rotate(-8)" fill="#dcdfdc"/>
        <path id="Pfad_78-2" data-name="Pfad 78" d="M7.2,3.6A3.6,3.6,0,1,1,3.6,0,3.6,3.6,0,0,1,7.2,3.6" transform="translate(55.52 46.851) rotate(-8)" fill="#dcdfdc"/>
        <path id="Pfad_79-2" data-name="Pfad 79" d="M7.212,3.6a3.619,3.619,0,0,1-.771,2.224H.772A3.6,3.6,0,1,1,7.212,3.6" transform="translate(57.186 58.754) rotate(-8)" fill="#dcdfdc"/>
        <path id="Pfad_80-2" data-name="Pfad 80" d="M7.2,3.6A3.6,3.6,0,1,1,3.6,0,3.6,3.6,0,0,1,7.2,3.6" transform="translate(38.796 6.711) rotate(-8)" fill="#dcdfdc"/>
        <path id="Pfad_81-2" data-name="Pfad 81" d="M7.2,3.6A3.6,3.6,0,1,1,3.6,0,3.6,3.6,0,0,1,7.2,3.6" transform="translate(40.469 18.616) rotate(-8)" fill="#dcdfdc"/>
        <path id="Pfad_82-2" data-name="Pfad 82" d="M7.2,3.6A3.6,3.6,0,1,1,3.6,0,3.6,3.6,0,0,1,7.2,3.6" transform="translate(42.143 30.521) rotate(-8)" fill="#dcdfdc"/>
        <path id="Pfad_83-2" data-name="Pfad 83" d="M7.2,3.6A3.6,3.6,0,1,1,3.6,0,3.6,3.6,0,0,1,7.2,3.6" transform="translate(43.816 42.426) rotate(-8)" fill="#dcdfdc"/>
        <path id="Pfad_84-2" data-name="Pfad 84" d="M7.2,3.6A3.6,3.6,0,1,1,3.6,0,3.6,3.6,0,0,1,7.2,3.6" transform="translate(45.489 54.33) rotate(-8)" fill="#dcdfdc"/>
        <path id="Pfad_85-2" data-name="Pfad 85" d="M7.074,0A3.612,3.612,0,0,1,3.535,2.926,3.6,3.6,0,0,1,0,0Z" transform="translate(28.401 6.424) rotate(-8)" fill="#dcdfdc"/>
        <path id="Pfad_86-2" data-name="Pfad 86" d="M7.2,3.6A3.6,3.6,0,1,1,3.6,0,3.6,3.6,0,0,1,7.2,3.6" transform="translate(29.411 14.099) rotate(-8)" fill="#dcdfdc"/>
        <path id="Pfad_87-2" data-name="Pfad 87" d="M7.2,3.6A3.6,3.6,0,1,1,3.6,0,3.6,3.6,0,0,1,7.2,3.6" transform="translate(31.083 26.005) rotate(-8)" fill="#dcdfdc"/>
        <path id="Pfad_88-2" data-name="Pfad 88" d="M7.2,3.6A3.6,3.6,0,1,1,3.6,0,3.6,3.6,0,0,1,7.2,3.6" transform="translate(32.757 37.911) rotate(-8)" fill="#dcdfdc"/>
        <path id="Pfad_89-2" data-name="Pfad 89" d="M7.2,3.6A3.6,3.6,0,1,1,3.6,0,3.6,3.6,0,0,1,7.2,3.6" transform="translate(34.43 49.815) rotate(-8)" fill="#dcdfdc"/>
        <path id="Pfad_90-2" data-name="Pfad 90" d="M7.2,3.6a3.609,3.609,0,0,1-.759,2.224H.77a3.481,3.481,0,0,1-.509-.9A3.46,3.46,0,0,1,0,3.6a3.6,3.6,0,1,1,7.2,0" transform="translate(36.103 61.717) rotate(-8)" fill="#dcdfdc"/>
        <path id="Pfad_91-2" data-name="Pfad 91" d="M7.2,3.6A3.6,3.6,0,1,1,3.6,0,3.6,3.6,0,0,1,7.2,3.6" transform="translate(17.705 9.675) rotate(-8)" fill="#dcdfdc"/>
        <path id="Pfad_92-2" data-name="Pfad 92" d="M7.2,3.6A3.6,3.6,0,1,1,3.6,0,3.6,3.6,0,0,1,7.2,3.6" transform="translate(19.379 21.58) rotate(-8)" fill="#dcdfdc"/>
        <path id="Pfad_93-2" data-name="Pfad 93" d="M7.2,3.6A3.6,3.6,0,1,1,3.6,0,3.6,3.6,0,0,1,7.2,3.6" transform="translate(21.052 33.485) rotate(-8)" fill="#dcdfdc"/>
        <path id="Pfad_94-2" data-name="Pfad 94" d="M7.2,3.6A3.6,3.6,0,1,1,3.6,0,3.6,3.6,0,0,1,7.2,3.6" transform="translate(22.725 45.39) rotate(-8)" fill="#dcdfdc"/>
        <path id="Pfad_95-2" data-name="Pfad 95" d="M7.2,3.6A3.6,3.6,0,1,1,3.6,0,3.6,3.6,0,0,1,7.2,3.6" transform="translate(24.398 57.294) rotate(-8)" fill="#dcdfdc"/>
        <path id="Pfad_96-2" data-name="Pfad 96" d="M7.075,0A3.624,3.624,0,0,1,3.527,2.926,3.59,3.59,0,0,1,0,0Z" transform="translate(7.314 9.387) rotate(-8)" fill="#dcdfdc"/>
        <path id="Pfad_97-2" data-name="Pfad 97" d="M7.206,3.6A3.6,3.6,0,1,1,3.6,0a3.6,3.6,0,0,1,3.6,3.6" transform="translate(8.318 17.064) rotate(-8)" fill="#dcdfdc"/>
        <path id="Pfad_98-2" data-name="Pfad 98" d="M7.206,3.6A3.6,3.6,0,1,1,3.6,0a3.6,3.6,0,0,1,3.6,3.6" transform="translate(9.991 28.969) rotate(-8)" fill="#dcdfdc"/>
        <path id="Pfad_99-2" data-name="Pfad 99" d="M7.206,3.6A3.6,3.6,0,1,1,3.6,0a3.6,3.6,0,0,1,3.6,3.6" transform="translate(11.664 40.876) rotate(-8)" fill="#dcdfdc"/>
        <path id="Pfad_100-2" data-name="Pfad 100" d="M7.206,3.6A3.6,3.6,0,1,1,3.6,0a3.6,3.6,0,0,1,3.6,3.6" transform="translate(13.337 52.779) rotate(-8)" fill="#dcdfdc"/>
        <path id="Pfad_101-2" data-name="Pfad 101" d="M7.2,3.6A3.609,3.609,0,0,1,6.44,5.828H.771A3.6,3.6,0,1,1,7.2,3.6" transform="translate(15.017 64.68) rotate(-8)" fill="#dcdfdc"/>
        <path id="Pfad_102-2" data-name="Pfad 102" d="M3.786,3.6a3.6,3.6,0,0,1-3.6,3.6L0,7.188V.011L.183,0a3.6,3.6,0,0,1,3.6,3.6" transform="translate(0 12.166) rotate(-8)" fill="#dcdfdc"/>
        <path id="Pfad_103-2" data-name="Pfad 103" d="M3.786,3.6a3.607,3.607,0,0,1-3.6,3.606L0,7.2V.011L.183,0a3.6,3.6,0,0,1,3.6,3.6" transform="translate(1.672 24.067) rotate(-8)" fill="#dcdfdc"/>
        <path id="Pfad_104-2" data-name="Pfad 104" d="M3.786,3.606a3.458,3.458,0,0,1-.271,1.371A3.587,3.587,0,0,1,.183,7.211L0,7.2V.012L.183,0a3.607,3.607,0,0,1,3.6,3.606" transform="translate(3.345 35.969) rotate(-8)" fill="#dcdfdc"/>
        <path id="Pfad_105-2" data-name="Pfad 105" d="M3.786,3.594A3.6,3.6,0,0,1,.183,7.2L0,7.189V.012L.183,0a3.6,3.6,0,0,1,3.6,3.594" transform="translate(5.019 47.88) rotate(-8)" fill="#dcdfdc"/>
        <path id="Pfad_106-2" data-name="Pfad 106" d="M3.786,3.606a3.6,3.6,0,0,1-3.6,3.6L0,7.2V.013L.183,0a3.6,3.6,0,0,1,3.6,3.606" transform="translate(6.692 59.782) rotate(-8)" fill="#dcdfdc"/>
      </g>
      <rect id="Rechteck_22-2" data-name="Rechteck 22" width="12.79" height="61.655" transform="translate(159.763 687.887) rotate(-8)" fill="#eb4511"/>
      <path id="Pfad_107-2" data-name="Pfad 107" d="M0,16.3l25.636-3.968L17.035,0,0,13.969Z" transform="translate(165.899 670.566) rotate(-8)" fill="#eb4511" opacity="0.5"/>
      <path id="Pfad_108-2" data-name="Pfad 108" d="M0,26.174H2.094L10.818,5.643,0,0Z" transform="translate(162.453 661.078) rotate(-8)" fill="#eb4511" opacity="0.51"/>
      <path id="Pfad_109-2" data-name="Pfad 109" d="M25.636,16.3,0,12.331,8.6,0,25.636,13.969Z" transform="translate(136.37 674.716) rotate(-8)" fill="#eb4511"/>
      <path id="Pfad_110-2" data-name="Pfad 110" d="M10.821,26.174H8.728L0,5.643,10.821,0Z" transform="translate(151.738 662.584) rotate(-8)" fill="#eb4511"/>
    </g>
    <g id="Gruppe_293" data-name="Gruppe 293" transform="translate(-11216.91 -5102.939) rotate(17)" opacity="0.53">
      <g id="Gruppe_213" data-name="Gruppe 213" transform="translate(456.605 1057.86)">
        <rect id="Rechteck_70" data-name="Rechteck 70" width="2.134" height="8.682" transform="translate(10.618 27.449)" fill="#d2d1d2"/>
        <g id="Gruppe_212" data-name="Gruppe 212" transform="translate(0 0)">
          <path id="Pfad_249" data-name="Pfad 249" d="M468.29,1122.745l-11.684,24.623,23.369-2.791Z" transform="translate(-456.605 -1113.69)" fill="#d2d1d2"/>
          <path id="Pfad_250" data-name="Pfad 250" d="M483.128,1092.117l-9.278,20.126,18.556-2.791Z" transform="translate(-471.444 -1087.337)" fill="#d2d1d2"/>
          <path id="Pfad_251" data-name="Pfad 251" d="M494.912,1057.86l-7.367,16.555,14.734-2.791Z" transform="translate(-483.227 -1057.86)" fill="#d2d1d2"/>
        </g>
      </g>
      <g id="Gruppe_217" data-name="Gruppe 217" transform="translate(456.605 1057.86)">
        <g id="Gruppe_216" data-name="Gruppe 216" transform="translate(0 0)">
          <g id="Gruppe_215" data-name="Gruppe 215" clip-path="url(#clip-path)">
            <g id="Gruppe_214" data-name="Gruppe 214" transform="translate(-4.479 4.886)">
              <path id="Pfad_252" data-name="Pfad 252" d="M479.171,1121.87a10.741,10.741,0,0,0,6.376-1.911c2.633-2.083,6.112-6.109,9.112-4.616,0,0-2.784-2.635-6.992,1.54C485.2,1119.327,483.2,1121.067,479.171,1121.87Z" transform="translate(-471.543 -1111.502)" fill="#fff"/>
              <path id="Pfad_253" data-name="Pfad 253" d="M472.852,1102.673a11.77,11.77,0,0,0,6.675-2.94c2.582-2.621,5.82-7.47,9.284-6.252,0,0-3.384-2.489-7.395,2.621C479.068,1099.092,477.128,1101.254,472.852,1102.673Z" transform="translate(-466.106 -1092.875)" fill="#fff"/>
              <path id="Pfad_254" data-name="Pfad 254" d="M451.654,1192.294s6.176.224,10.486-3.254,9.983-10.174,14.955-7.759c0,0-4.634-4.3-11.508,2.652C461.564,1188,458.292,1190.9,451.654,1192.294Z" transform="translate(-447.866 -1167.811)" fill="#fff"/>
              <path id="Pfad_255" data-name="Pfad 255" d="M424.511,1247.585s6.965,1.551,12.589-1.493,13.471-9.456,18.609-5.67c0,0-4.359-5.857-13.623.595C436.664,1244.794,432.339,1247.4,424.511,1247.585Z" transform="translate(-424.511 -1217.736)" fill="#fff"/>
              <path id="Pfad_256" data-name="Pfad 256" d="M456.07,1175.721s5.29.974,9.44-1.475,9.883-7.5,13.859-4.788c0,0-3.446-4.29-10.244.828C465.146,1173.281,461.961,1175.366,456.07,1175.721Z" transform="translate(-451.666 -1157.323)" fill="#fff"/>
            </g>
          </g>
        </g>
      </g>
    </g>
    <g id="Gruppe_294" data-name="Gruppe 294" transform="translate(-11691.29 -5015.991)" opacity="0.53">
      <g id="Gruppe_213-2" data-name="Gruppe 213" transform="translate(456.605 1057.86)">
        <rect id="Rechteck_70-2" data-name="Rechteck 70" width="2.134" height="8.682" transform="translate(10.618 27.449)" fill="#d2d1d2"/>
        <g id="Gruppe_212-2" data-name="Gruppe 212" transform="translate(0 0)">
          <path id="Pfad_249-2" data-name="Pfad 249" d="M468.29,1122.745l-11.684,24.623,23.369-2.791Z" transform="translate(-456.605 -1113.69)" fill="#d2d1d2"/>
          <path id="Pfad_250-2" data-name="Pfad 250" d="M483.128,1092.117l-9.278,20.126,18.556-2.791Z" transform="translate(-471.444 -1087.337)" fill="#d2d1d2"/>
          <path id="Pfad_251-2" data-name="Pfad 251" d="M494.912,1057.86l-7.367,16.555,14.734-2.791Z" transform="translate(-483.227 -1057.86)" fill="#d2d1d2"/>
        </g>
      </g>
      <g id="Gruppe_217-2" data-name="Gruppe 217" transform="translate(456.605 1057.86)">
        <g id="Gruppe_216-2" data-name="Gruppe 216" transform="translate(0 0)">
          <g id="Gruppe_215-2" data-name="Gruppe 215" clip-path="url(#clip-path)">
            <g id="Gruppe_214-2" data-name="Gruppe 214" transform="translate(-4.479 4.886)">
              <path id="Pfad_252-2" data-name="Pfad 252" d="M479.171,1121.87a10.741,10.741,0,0,0,6.376-1.911c2.633-2.083,6.112-6.109,9.112-4.616,0,0-2.784-2.635-6.992,1.54C485.2,1119.327,483.2,1121.067,479.171,1121.87Z" transform="translate(-471.543 -1111.502)" fill="#fff"/>
              <path id="Pfad_253-2" data-name="Pfad 253" d="M472.852,1102.673a11.77,11.77,0,0,0,6.675-2.94c2.582-2.621,5.82-7.47,9.284-6.252,0,0-3.384-2.489-7.395,2.621C479.068,1099.092,477.128,1101.254,472.852,1102.673Z" transform="translate(-466.106 -1092.875)" fill="#fff"/>
              <path id="Pfad_254-2" data-name="Pfad 254" d="M451.654,1192.294s6.176.224,10.486-3.254,9.983-10.174,14.955-7.759c0,0-4.634-4.3-11.508,2.652C461.564,1188,458.292,1190.9,451.654,1192.294Z" transform="translate(-447.866 -1167.811)" fill="#fff"/>
              <path id="Pfad_255-2" data-name="Pfad 255" d="M424.511,1247.585s6.965,1.551,12.589-1.493,13.471-9.456,18.609-5.67c0,0-4.359-5.857-13.623.595C436.664,1244.794,432.339,1247.4,424.511,1247.585Z" transform="translate(-424.511 -1217.736)" fill="#fff"/>
              <path id="Pfad_256-2" data-name="Pfad 256" d="M456.07,1175.721s5.29.974,9.44-1.475,9.883-7.5,13.859-4.788c0,0-3.446-4.29-10.244.828C465.146,1173.281,461.961,1175.366,456.07,1175.721Z" transform="translate(-451.666 -1157.323)" fill="#fff"/>
            </g>
          </g>
        </g>
      </g>
    </g>
  </g>
</svg>
