<svg xmlns="http://www.w3.org/2000/svg" width="151.499" height="166.097" viewBox="0 0 151.499 166.097">
  <g id="present1" transform="translate(-227.183 -624.749) rotate(-8)">
    <path id="Pfad_112" data-name="Pfad 112" d="M0,0H127.565V104.758H0Z" transform="translate(128.922 715.048) rotate(-8)" fill="#7e856e"/>
    <g id="Gruppe_254" data-name="Gruppe 254">
      <path id="Pfad_63" data-name="Pfad 63" d="M79.71,26.956v4.971h-.038a6.161,6.161,0,0,1-6.03-4.971Z" transform="translate(172.561 681.694) rotate(-8)" fill="#dcdfdc"/>
      <path id="Pfad_64" data-name="Pfad 64" d="M79.747,34.929V47.164h-.038a6.118,6.118,0,1,1,0-12.235Z" transform="translate(173.245 686.83) rotate(-8)" fill="#dcdfdc"/>
      <path id="Pfad_65" data-name="Pfad 65" d="M79.747,47.306V59.561h-.038a6.127,6.127,0,0,1,0-12.255Z" transform="translate(174.364 694.794) rotate(-8)" fill="#dcdfdc"/>
      <path id="Pfad_66" data-name="Pfad 66" d="M79.747,59.695V71.927h-.038a6.116,6.116,0,1,1,0-12.232Z" transform="translate(175.484 702.767) rotate(-8)" fill="#dcdfdc"/>
      <path id="Pfad_67" data-name="Pfad 67" d="M79.747,72.072V84.307h-.038a6.118,6.118,0,1,1,0-12.235Z" transform="translate(176.604 710.732) rotate(-8)" fill="#dcdfdc"/>
      <path id="Pfad_68" data-name="Pfad 68" d="M79.747,84.45v9.9H74.895a6.021,6.021,0,0,1-1.31-3.776,6.114,6.114,0,0,1,6.124-6.124Z" transform="translate(177.724 718.697) rotate(-8)" fill="#dcdfdc"/>
      <path id="Pfad_69" data-name="Pfad 69" d="M74.523,34.86A6.121,6.121,0,1,1,68.4,28.739a6.117,6.117,0,0,1,6.119,6.121" transform="translate(165.411 683.869) rotate(-8)" fill="#dcdfdc"/>
      <path id="Pfad_70" data-name="Pfad 70" d="M74.523,47.239A6.121,6.121,0,1,1,68.4,41.12a6.119,6.119,0,0,1,6.119,6.119" transform="translate(166.53 691.836) rotate(-8)" fill="#dcdfdc"/>
      <path id="Pfad_71" data-name="Pfad 71" d="M74.523,59.62A6.121,6.121,0,1,1,68.4,53.5a6.118,6.118,0,0,1,6.119,6.119" transform="translate(167.65 699.803) rotate(-8)" fill="#dcdfdc"/>
      <path id="Pfad_72" data-name="Pfad 72" d="M74.523,72A6.121,6.121,0,1,1,68.4,65.882,6.117,6.117,0,0,1,74.523,72" transform="translate(168.77 707.771) rotate(-8)" fill="#dcdfdc"/>
      <path id="Pfad_73" data-name="Pfad 73" d="M74.523,84.381A6.121,6.121,0,1,1,68.4,78.262a6.12,6.12,0,0,1,6.119,6.119" transform="translate(169.89 715.737) rotate(-8)" fill="#dcdfdc"/>
      <path id="Pfad_74" data-name="Pfad 74" d="M63.735,26.956a6.118,6.118,0,0,1-12.019,0Z" transform="translate(158.451 683.677) rotate(-8)" fill="#dcdfdc"/>
      <path id="Pfad_75" data-name="Pfad 75" d="M63.892,41.05a6.121,6.121,0,1,1-6.121-6.121,6.12,6.12,0,0,1,6.121,6.121" transform="translate(159.13 688.813) rotate(-8)" fill="#dcdfdc"/>
      <path id="Pfad_76" data-name="Pfad 76" d="M63.892,53.431a6.121,6.121,0,1,1-6.121-6.121,6.119,6.119,0,0,1,6.121,6.121" transform="translate(160.249 696.781) rotate(-8)" fill="#dcdfdc"/>
      <path id="Pfad_77" data-name="Pfad 77" d="M63.892,65.811a6.121,6.121,0,1,1-6.121-6.118,6.119,6.119,0,0,1,6.121,6.118" transform="translate(161.369 704.75) rotate(-8)" fill="#dcdfdc"/>
      <path id="Pfad_78" data-name="Pfad 78" d="M63.892,78.193a6.121,6.121,0,1,1-6.121-6.121,6.12,6.12,0,0,1,6.121,6.121" transform="translate(162.488 712.715) rotate(-8)" fill="#dcdfdc"/>
      <path id="Pfad_79" data-name="Pfad 79" d="M63.9,90.574a6.148,6.148,0,0,1-1.31,3.778H52.955A6.123,6.123,0,1,1,63.9,90.574" transform="translate(163.604 720.681) rotate(-8)" fill="#dcdfdc"/>
      <path id="Pfad_80" data-name="Pfad 80" d="M52.59,34.86a6.121,6.121,0,1,1-6.124-6.121A6.122,6.122,0,0,1,52.59,34.86" transform="translate(151.297 685.853) rotate(-8)" fill="#dcdfdc"/>
      <path id="Pfad_81" data-name="Pfad 81" d="M52.59,47.239a6.121,6.121,0,1,1-6.124-6.119,6.123,6.123,0,0,1,6.124,6.119" transform="translate(152.416 693.82) rotate(-8)" fill="#dcdfdc"/>
      <path id="Pfad_82" data-name="Pfad 82" d="M52.59,59.62A6.121,6.121,0,1,1,46.466,53.5,6.122,6.122,0,0,1,52.59,59.62" transform="translate(153.536 701.787) rotate(-8)" fill="#dcdfdc"/>
      <path id="Pfad_83" data-name="Pfad 83" d="M52.59,72a6.121,6.121,0,1,1-6.124-6.119A6.122,6.122,0,0,1,52.59,72" transform="translate(154.656 709.754) rotate(-8)" fill="#dcdfdc"/>
      <path id="Pfad_84" data-name="Pfad 84" d="M52.59,84.381a6.121,6.121,0,1,1-6.124-6.119,6.124,6.124,0,0,1,6.124,6.119" transform="translate(155.775 717.721) rotate(-8)" fill="#dcdfdc"/>
      <path id="Pfad_85" data-name="Pfad 85" d="M41.806,26.956a6.118,6.118,0,0,1-12.019,0Z" transform="translate(144.34 685.66) rotate(-8)" fill="#dcdfdc"/>
      <path id="Pfad_86" data-name="Pfad 86" d="M41.957,41.05a6.12,6.12,0,1,1-6.119-6.121,6.12,6.12,0,0,1,6.119,6.121" transform="translate(145.016 690.797) rotate(-8)" fill="#dcdfdc"/>
      <path id="Pfad_87" data-name="Pfad 87" d="M41.957,53.431a6.12,6.12,0,1,1-6.119-6.121,6.118,6.118,0,0,1,6.119,6.121" transform="translate(146.135 698.764) rotate(-8)" fill="#dcdfdc"/>
      <path id="Pfad_88" data-name="Pfad 88" d="M41.957,65.811a6.12,6.12,0,1,1-6.119-6.118,6.118,6.118,0,0,1,6.119,6.118" transform="translate(147.255 706.733) rotate(-8)" fill="#dcdfdc"/>
      <path id="Pfad_89" data-name="Pfad 89" d="M41.957,78.193a6.12,6.12,0,1,1-6.119-6.121,6.119,6.119,0,0,1,6.119,6.121" transform="translate(148.375 714.699) rotate(-8)" fill="#dcdfdc"/>
      <path id="Pfad_90" data-name="Pfad 90" d="M41.951,90.574a6.132,6.132,0,0,1-1.29,3.778H31.025a6.316,6.316,0,0,1-1.308-3.778,6.117,6.117,0,1,1,12.234,0" transform="translate(149.494 722.664) rotate(-8)" fill="#dcdfdc"/>
      <path id="Pfad_91" data-name="Pfad 91" d="M30.656,34.86a6.121,6.121,0,1,1-6.121-6.121,6.117,6.117,0,0,1,6.121,6.121" transform="translate(137.182 687.836) rotate(-8)" fill="#dcdfdc"/>
      <path id="Pfad_92" data-name="Pfad 92" d="M30.656,47.239a6.121,6.121,0,1,1-6.121-6.119,6.118,6.118,0,0,1,6.121,6.119" transform="translate(138.302 695.803) rotate(-8)" fill="#dcdfdc"/>
      <path id="Pfad_93" data-name="Pfad 93" d="M30.656,59.62A6.121,6.121,0,1,1,24.535,53.5a6.117,6.117,0,0,1,6.121,6.119" transform="translate(139.422 703.771) rotate(-8)" fill="#dcdfdc"/>
      <path id="Pfad_94" data-name="Pfad 94" d="M30.656,72a6.121,6.121,0,1,1-6.121-6.119A6.117,6.117,0,0,1,30.656,72" transform="translate(140.541 711.738) rotate(-8)" fill="#dcdfdc"/>
      <path id="Pfad_95" data-name="Pfad 95" d="M30.656,84.381a6.121,6.121,0,1,1-6.121-6.119,6.119,6.119,0,0,1,6.121,6.119" transform="translate(141.661 719.705) rotate(-8)" fill="#dcdfdc"/>
      <path id="Pfad_96" data-name="Pfad 96" d="M19.879,26.956a6.119,6.119,0,0,1-12.021,0Z" transform="translate(130.228 687.644) rotate(-8)" fill="#dcdfdc"/>
      <path id="Pfad_97" data-name="Pfad 97" d="M20.024,41.05A6.122,6.122,0,1,1,13.9,34.929a6.12,6.12,0,0,1,6.121,6.121" transform="translate(130.899 692.781) rotate(-8)" fill="#dcdfdc"/>
      <path id="Pfad_98" data-name="Pfad 98" d="M20.024,53.431A6.122,6.122,0,1,1,13.9,47.31a6.119,6.119,0,0,1,6.121,6.121" transform="translate(132.02 700.748) rotate(-8)" fill="#dcdfdc"/>
      <path id="Pfad_99" data-name="Pfad 99" d="M20.024,65.811A6.122,6.122,0,1,1,13.9,59.693a6.119,6.119,0,0,1,6.121,6.118" transform="translate(133.139 708.717) rotate(-8)" fill="#dcdfdc"/>
      <path id="Pfad_100" data-name="Pfad 100" d="M20.024,78.193A6.122,6.122,0,1,1,13.9,72.072a6.12,6.12,0,0,1,6.121,6.121" transform="translate(134.259 716.683) rotate(-8)" fill="#dcdfdc"/>
      <path id="Pfad_101" data-name="Pfad 101" d="M20.02,90.574a6.132,6.132,0,0,1-1.29,3.778H9.1A6.117,6.117,0,1,1,20.02,90.574" transform="translate(135.383 724.647) rotate(-8)" fill="#dcdfdc"/>
      <path id="Pfad_102" data-name="Pfad 102" d="M6.433,34.866A6.111,6.111,0,0,1,.31,40.975L0,40.956V28.76l.31-.018a6.115,6.115,0,0,1,6.123,6.124" transform="translate(125.333 689.503) rotate(-8)" fill="#dcdfdc"/>
      <path id="Pfad_103" data-name="Pfad 103" d="M6.433,47.243A6.128,6.128,0,0,1,.31,53.371L0,53.351V41.137l.31-.018a6.115,6.115,0,0,1,6.123,6.124" transform="translate(126.452 697.468) rotate(-8)" fill="#dcdfdc"/>
      <path id="Pfad_104" data-name="Pfad 104" d="M6.433,59.623a5.876,5.876,0,0,1-.46,2.33A6.094,6.094,0,0,1,.31,65.748L0,65.729V53.516l.31-.02a6.129,6.129,0,0,1,6.123,6.127" transform="translate(127.571 705.433) rotate(-8)" fill="#dcdfdc"/>
      <path id="Pfad_105" data-name="Pfad 105" d="M6.433,71.99A6.114,6.114,0,0,1,.31,78.116L0,78.1V65.9l.31-.02A6.111,6.111,0,0,1,6.433,71.99" transform="translate(128.691 713.405) rotate(-8)" fill="#dcdfdc"/>
      <path id="Pfad_106" data-name="Pfad 106" d="M6.433,84.388A6.124,6.124,0,0,1,.31,90.511L0,90.5V78.282l.31-.021a6.114,6.114,0,0,1,6.123,6.127" transform="translate(129.812 721.369) rotate(-8)" fill="#dcdfdc"/>
    </g>
    <rect id="Rechteck_22" data-name="Rechteck 22" width="21.732" height="104.758" transform="translate(181.324 707.682) rotate(-8)" fill="#eb4511"/>
    <path id="Pfad_107" data-name="Pfad 107" d="M40.814,37.864l43.557-6.743L69.759,10.17,40.814,33.9Z" transform="translate(149.917 673.861) rotate(-8)" fill="#eb4511" opacity="0.5"/>
    <path id="Pfad_108" data-name="Pfad 108" d="M38.66,44.472h3.559L57.041,9.588,38.66,0Z" transform="translate(147.611 667.511) rotate(-8)" fill="#eb4511" opacity="0.51"/>
    <path id="Pfad_109" data-name="Pfad 109" d="M53.662,37.864,10.1,31.121,24.716,10.17,53.662,33.9Z" transform="translate(130.155 676.638) rotate(-8)" fill="#eb4511"/>
    <path id="Pfad_110" data-name="Pfad 110" d="M45.9,44.472H42.346L27.516,9.588,45.9,0Z" transform="translate(140.44 668.519) rotate(-8)" fill="#eb4511"/>
  </g>
</svg>
