<svg xmlns="http://www.w3.org/2000/svg" width="103.246" height="115.303" viewBox="0 0 103.246 115.303">
  <g id="present2" transform="translate(-639.897 -420.333) rotate(-11)">
    <path id="Pfad_112" data-name="Pfad 112" d="M0,0H90.7V74.484H0Z" transform="translate(539.887 576.121)" fill="#dcdfdc"/>
    <path id="Pfad_63" data-name="Pfad 63" d="M77.956,26.956V30.49h-.027a4.38,4.38,0,0,1-4.287-3.534Z" transform="translate(552.63 549.165)" fill="#fff"/>
    <path id="Pfad_64" data-name="Pfad 64" d="M77.966,34.929v8.7h-.027a4.35,4.35,0,1,1,0-8.7Z" transform="translate(552.62 550.544)" fill="#fff"/>
    <path id="Pfad_65" data-name="Pfad 65" d="M77.966,47.306v8.713h-.027a4.357,4.357,0,0,1,0-8.713Z" transform="translate(552.62 552.686)" fill="#fff"/>
    <path id="Pfad_66" data-name="Pfad 66" d="M77.966,59.695v8.7h-.027a4.348,4.348,0,1,1,0-8.7Z" transform="translate(552.62 554.83)" fill="#fff"/>
    <path id="Pfad_67" data-name="Pfad 67" d="M77.966,72.072v8.7h-.027a4.35,4.35,0,1,1,0-8.7Z" transform="translate(552.62 556.972)" fill="#fff"/>
    <path id="Pfad_68" data-name="Pfad 68" d="M77.966,84.45v7.039h-3.45a4.281,4.281,0,0,1-.931-2.685,4.347,4.347,0,0,1,4.354-4.354Z" transform="translate(552.62 559.114)" fill="#fff"/>
    <path id="Pfad_69" data-name="Pfad 69" d="M70.985,33.091a4.352,4.352,0,1,1-4.351-4.352,4.349,4.349,0,0,1,4.351,4.352" transform="translate(550.664 549.473)" fill="#fff"/>
    <path id="Pfad_70" data-name="Pfad 70" d="M70.985,45.471a4.352,4.352,0,1,1-4.351-4.351,4.35,4.35,0,0,1,4.351,4.351" transform="translate(550.664 551.615)" fill="#fff"/>
    <path id="Pfad_71" data-name="Pfad 71" d="M70.985,57.852A4.352,4.352,0,1,1,66.634,53.5a4.35,4.35,0,0,1,4.351,4.351" transform="translate(550.664 553.758)" fill="#fff"/>
    <path id="Pfad_72" data-name="Pfad 72" d="M70.985,70.233a4.352,4.352,0,1,1-4.351-4.351,4.349,4.349,0,0,1,4.351,4.351" transform="translate(550.664 555.9)" fill="#fff"/>
    <path id="Pfad_73" data-name="Pfad 73" d="M70.985,82.613a4.352,4.352,0,1,1-4.351-4.351,4.351,4.351,0,0,1,4.351,4.351" transform="translate(550.664 558.043)" fill="#fff"/>
    <path id="Pfad_74" data-name="Pfad 74" d="M60.262,26.956a4.35,4.35,0,0,1-8.546,0Z" transform="translate(548.836 549.165)" fill="#fff"/>
    <path id="Pfad_75" data-name="Pfad 75" d="M60.354,39.281A4.352,4.352,0,1,1,56,34.929a4.351,4.351,0,0,1,4.352,4.352" transform="translate(548.824 550.544)" fill="#fff"/>
    <path id="Pfad_76" data-name="Pfad 76" d="M60.354,51.662A4.352,4.352,0,1,1,56,47.31a4.35,4.35,0,0,1,4.352,4.352" transform="translate(548.824 552.687)" fill="#fff"/>
    <path id="Pfad_77" data-name="Pfad 77" d="M60.354,64.043A4.352,4.352,0,1,1,56,59.693a4.35,4.35,0,0,1,4.352,4.35" transform="translate(548.824 554.829)" fill="#fff"/>
    <path id="Pfad_78" data-name="Pfad 78" d="M60.354,76.424A4.352,4.352,0,1,1,56,72.072a4.351,4.351,0,0,1,4.352,4.352" transform="translate(548.824 556.972)" fill="#fff"/>
    <path id="Pfad_79" data-name="Pfad 79" d="M60.355,88.8a4.371,4.371,0,0,1-.931,2.686H52.576a4.354,4.354,0,1,1,7.78-2.686" transform="translate(548.823 559.114)" fill="#fff"/>
    <path id="Pfad_80" data-name="Pfad 80" d="M49.052,33.091A4.352,4.352,0,1,1,44.7,28.739a4.352,4.352,0,0,1,4.354,4.352" transform="translate(546.869 549.473)" fill="#fff"/>
    <path id="Pfad_81" data-name="Pfad 81" d="M49.052,45.471A4.352,4.352,0,1,1,44.7,41.12a4.353,4.353,0,0,1,4.354,4.351" transform="translate(546.869 551.615)" fill="#fff"/>
    <path id="Pfad_82" data-name="Pfad 82" d="M49.052,57.852A4.352,4.352,0,1,1,44.7,53.5a4.353,4.353,0,0,1,4.354,4.351" transform="translate(546.869 553.758)" fill="#fff"/>
    <path id="Pfad_83" data-name="Pfad 83" d="M49.052,70.233A4.352,4.352,0,1,1,44.7,65.882a4.352,4.352,0,0,1,4.354,4.351" transform="translate(546.869 555.9)" fill="#fff"/>
    <path id="Pfad_84" data-name="Pfad 84" d="M49.052,82.613A4.352,4.352,0,1,1,44.7,78.262a4.354,4.354,0,0,1,4.354,4.351" transform="translate(546.869 558.043)" fill="#fff"/>
    <path id="Pfad_85" data-name="Pfad 85" d="M38.333,26.956a4.35,4.35,0,0,1-8.546,0Z" transform="translate(545.041 549.165)" fill="#fff"/>
    <path id="Pfad_86" data-name="Pfad 86" d="M38.42,39.281a4.351,4.351,0,1,1-4.351-4.352,4.351,4.351,0,0,1,4.351,4.352" transform="translate(545.029 550.544)" fill="#fff"/>
    <path id="Pfad_87" data-name="Pfad 87" d="M38.42,51.662a4.351,4.351,0,1,1-4.351-4.352,4.35,4.35,0,0,1,4.351,4.352" transform="translate(545.029 552.687)" fill="#fff"/>
    <path id="Pfad_88" data-name="Pfad 88" d="M38.42,64.043a4.351,4.351,0,1,1-4.351-4.35,4.35,4.35,0,0,1,4.351,4.35" transform="translate(545.029 554.829)" fill="#fff"/>
    <path id="Pfad_89" data-name="Pfad 89" d="M38.42,76.424a4.351,4.351,0,1,1-4.351-4.352,4.351,4.351,0,0,1,4.351,4.352" transform="translate(545.029 556.972)" fill="#fff"/>
    <path id="Pfad_90" data-name="Pfad 90" d="M38.415,88.8a4.36,4.36,0,0,1-.917,2.686H30.647a4.491,4.491,0,0,1-.93-2.686,4.349,4.349,0,1,1,8.7,0" transform="translate(545.029 559.114)" fill="#fff"/>
    <path id="Pfad_91" data-name="Pfad 91" d="M27.118,33.091a4.352,4.352,0,1,1-4.352-4.352,4.349,4.349,0,0,1,4.352,4.352" transform="translate(543.073 549.473)" fill="#fff"/>
    <path id="Pfad_92" data-name="Pfad 92" d="M27.118,45.471a4.352,4.352,0,1,1-4.352-4.351,4.35,4.35,0,0,1,4.352,4.351" transform="translate(543.073 551.615)" fill="#fff"/>
    <path id="Pfad_93" data-name="Pfad 93" d="M27.118,57.852A4.352,4.352,0,1,1,22.766,53.5a4.349,4.349,0,0,1,4.352,4.351" transform="translate(543.073 553.758)" fill="#fff"/>
    <path id="Pfad_94" data-name="Pfad 94" d="M27.118,70.233a4.352,4.352,0,1,1-4.352-4.351,4.349,4.349,0,0,1,4.352,4.351" transform="translate(543.073 555.9)" fill="#fff"/>
    <path id="Pfad_95" data-name="Pfad 95" d="M27.118,82.613a4.352,4.352,0,1,1-4.352-4.351,4.351,4.351,0,0,1,4.352,4.351" transform="translate(543.073 558.043)" fill="#fff"/>
    <path id="Pfad_96" data-name="Pfad 96" d="M16.4,26.956a4.351,4.351,0,0,1-8.547,0Z" transform="translate(541.246 549.165)" fill="#fff"/>
    <path id="Pfad_97" data-name="Pfad 97" d="M16.486,39.281a4.353,4.353,0,1,1-4.352-4.352,4.351,4.351,0,0,1,4.352,4.352" transform="translate(541.233 550.544)" fill="#fff"/>
    <path id="Pfad_98" data-name="Pfad 98" d="M16.486,51.662a4.353,4.353,0,1,1-4.352-4.352,4.35,4.35,0,0,1,4.352,4.352" transform="translate(541.233 552.687)" fill="#fff"/>
    <path id="Pfad_99" data-name="Pfad 99" d="M16.486,64.043a4.353,4.353,0,1,1-4.352-4.35,4.35,4.35,0,0,1,4.352,4.35" transform="translate(541.233 554.829)" fill="#fff"/>
    <path id="Pfad_100" data-name="Pfad 100" d="M16.486,76.424a4.353,4.353,0,1,1-4.352-4.352,4.351,4.351,0,0,1,4.352,4.352" transform="translate(541.233 556.972)" fill="#fff"/>
    <path id="Pfad_101" data-name="Pfad 101" d="M16.485,88.8a4.36,4.36,0,0,1-.917,2.686H8.719A4.349,4.349,0,1,1,16.485,88.8" transform="translate(541.234 559.114)" fill="#fff"/>
    <path id="Pfad_102" data-name="Pfad 102" d="M4.574,33.1A4.345,4.345,0,0,1,.221,37.44L0,37.426V28.755l.221-.013A4.347,4.347,0,0,1,4.574,33.1" transform="translate(539.887 549.473)" fill="#fff"/>
    <path id="Pfad_103" data-name="Pfad 103" d="M4.574,45.473A4.357,4.357,0,0,1,.221,49.83L0,49.816V41.132l.221-.013a4.347,4.347,0,0,1,4.353,4.354" transform="translate(539.887 551.615)" fill="#fff"/>
    <path id="Pfad_104" data-name="Pfad 104" d="M4.574,57.853a4.178,4.178,0,0,1-.327,1.656,4.333,4.333,0,0,1-4.026,2.7L0,62.194V53.51L.221,53.5a4.358,4.358,0,0,1,4.353,4.357" transform="translate(539.887 553.757)" fill="#fff"/>
    <path id="Pfad_105" data-name="Pfad 105" d="M4.574,70.225A4.347,4.347,0,0,1,.221,74.581L0,74.569V65.9l.221-.014a4.345,4.345,0,0,1,4.353,4.341" transform="translate(539.887 555.901)" fill="#fff"/>
    <path id="Pfad_106" data-name="Pfad 106" d="M4.574,82.618A4.354,4.354,0,0,1,.221,86.971L0,86.96V78.276l.221-.015a4.347,4.347,0,0,1,4.353,4.357" transform="translate(539.887 558.042)" fill="#fff"/>
    <rect id="Rechteck_22" data-name="Rechteck 22" width="15.451" height="74.484" transform="translate(577.511 576.119)"/>
    <path id="Pfad_107" data-name="Pfad 107" d="M40.814,29.86l30.97-4.794-10.39-14.9L40.814,27.045Z" transform="translate(546.949 546.26)" opacity="0.49"/>
    <path id="Pfad_108" data-name="Pfad 108" d="M38.66,31.62h2.53l10.539-24.8L38.66,0Z" transform="translate(546.577 544.5)" opacity="0.49"/>
    <path id="Pfad_109" data-name="Pfad 109" d="M41.074,29.86,10.1,25.066l10.388-14.9L41.074,27.045Z" transform="translate(541.636 546.26)"/>
    <path id="Pfad_110" data-name="Pfad 110" d="M40.589,31.62H38.061L27.516,6.817,40.589,0Z" transform="translate(544.648 544.5)"/>
  </g>
</svg>
