<svg xmlns="http://www.w3.org/2000/svg" width="526.157" height="794.811" viewBox="0 0 526.157 794.811">
  <g id="Gruppe_272" data-name="Gruppe 272" transform="translate(3908.159 1025.176)">
    <g id="Gruppe_204" data-name="Gruppe 204" transform="translate(-3908.159 -917.583)">
      <rect id="Rechteck_66" data-name="Rechteck 66" width="31.648" height="155.533" transform="translate(257.14 531.685)"/>
      <path id="Pfad_228" data-name="Pfad 228" d="M-3523.493,136.2l-258.188,391.111,501.828,25Z" transform="translate(3806.01 65.955)" fill="#7e856e"/>
      <path id="Pfad_312" data-name="Pfad 312" d="M-3625.126-193.4l-283.032,399.181,480.109-99.876Z" transform="matrix(0.999, 0.035, -0.035, 0.999, 3915.219, 415.32)" opacity="0.27"/>
      <path id="Pfad_229" data-name="Pfad 229" d="M-3625.126-193.4l-283.032,399.181,480.109-99.876Z" transform="translate(3908.159 279.045)" fill="#7e856e"/>
      <path id="Pfad_230" data-name="Pfad 230" d="M-3295.743-562.054l-152.989,246,376.186,91.777Z" transform="matrix(0.999, 0.035, -0.035, 0.999, 3550.804, 680.312)" opacity="0.23"/>
      <path id="Pfad_313" data-name="Pfad 313" d="M-3293.4-562.054-3448.732-315.47l381.953,92Z" transform="translate(3566.524 558.054)" fill="#7e856e"/>
    </g>
    <path id="Pfad_231" data-name="Pfad 231" d="M-3042.63-1025.176l6.38,40.454,32.2-13.555-25.818,26.9,25.818,26.9-32.2-13.554-6.38,40.453-6.378-40.453-32.2,13.554,25.818-26.9-25.818-26.9,32.2,13.555Z" transform="translate(-592.133)" fill="#7e856e"/>
  </g>
</svg>
